<svg xmlns="http://www.w3.org/2000/svg" width="80" height="80" viewBox="0 0 80 80"><defs><clipPath id="k8gma"><path fill="#fff" d="M40 20c11.046 0 20 8.954 20 20s-8.954 20-20 20-20-8.954-20-20 8.954-20 20-20z"/></clipPath></defs><g><g><path fill="#f5f5f5" d="M40 20c11.046 0 20 8.954 20 20s-8.954 20-20 20-20-8.954-20-20 8.954-20 20-20z"/><path fill="none" stroke="#c5cdd3" stroke-miterlimit="20" stroke-width="2" d="M40 20c11.046 0 20 8.954 20 20s-8.954 20-20 20-20-8.954-20-20 8.954-20 20-20z" clip-path="url(&quot;#k8gma&quot;)"/></g></g></svg>